<mxfile host="Chrome" modified="2021-07-19T16:12:56.433Z" agent="5.0 (X11; Linux x86_64) AppleWebKit/537.36 (KHTML, like Gecko) Chrome/91.0.4472.164 Safari/537.36" etag="Dt9IiXxRXOw1v13US8jA" compressed="false" version="14.8.5" type="device">
  <diagram id="TzhzjB5_DMCYsEhd5o4n" name="Seite-1">
    <mxGraphModel dx="872" dy="746" grid="1" gridSize="10" guides="1" tooltips="1" connect="1" arrows="1" fold="1" page="1" pageScale="1" pageWidth="827" pageHeight="1169" math="0" shadow="0">
      <root>
        <mxCell id="0" />
        <mxCell id="1" parent="0" />
        <mxCell id="Fk-Q9RZJwfzhAbFqgGlb-1" value="" style="rounded=1;whiteSpace=wrap;html=1;strokeWidth=2;" parent="1" vertex="1">
          <mxGeometry x="261" y="360.5" width="50" height="10" as="geometry" />
        </mxCell>
        <mxCell id="Fk-Q9RZJwfzhAbFqgGlb-2" value="" style="shape=trapezoid;perimeter=trapezoidPerimeter;whiteSpace=wrap;html=1;size=0.14444444444444443;rotation=-90;fillColor=#0A0A0A;" parent="1" vertex="1">
          <mxGeometry x="231" y="338" width="25" height="55" as="geometry" />
        </mxCell>
        <mxCell id="Fk-Q9RZJwfzhAbFqgGlb-3" value="" style="curved=1;endArrow=none;html=1;endFill=0;entryX=0.5;entryY=0;entryDx=0;entryDy=0;strokeWidth=2;" parent="1" target="Fk-Q9RZJwfzhAbFqgGlb-2" edge="1">
          <mxGeometry width="50" height="50" relative="1" as="geometry">
            <mxPoint x="151" y="398" as="sourcePoint" />
            <mxPoint x="311" y="408" as="targetPoint" />
            <Array as="points">
              <mxPoint x="181" y="398" />
              <mxPoint x="191" y="388" />
              <mxPoint x="171" y="358" />
            </Array>
          </mxGeometry>
        </mxCell>
        <mxCell id="Fk-Q9RZJwfzhAbFqgGlb-4" value="" style="endArrow=none;html=1;strokeWidth=2;entryX=0.75;entryY=0;entryDx=0;entryDy=0;exitX=0.75;exitY=1;exitDx=0;exitDy=0;" parent="1" edge="1">
          <mxGeometry width="50" height="50" relative="1" as="geometry">
            <mxPoint x="301" y="370.5" as="sourcePoint" />
            <mxPoint x="301" y="360.5" as="targetPoint" />
          </mxGeometry>
        </mxCell>
        <mxCell id="Fk-Q9RZJwfzhAbFqgGlb-5" value="" style="endArrow=none;html=1;strokeWidth=2;entryX=0.75;entryY=0;entryDx=0;entryDy=0;exitX=0.75;exitY=1;exitDx=0;exitDy=0;" parent="1" edge="1">
          <mxGeometry width="50" height="50" relative="1" as="geometry">
            <mxPoint x="291" y="370.5" as="sourcePoint" />
            <mxPoint x="291" y="360.5" as="targetPoint" />
          </mxGeometry>
        </mxCell>
        <mxCell id="Fk-Q9RZJwfzhAbFqgGlb-6" value="&lt;font style=&quot;font-size: 16px&quot;&gt;&lt;b style=&quot;font-size: 16px&quot;&gt;BUZZ1000&lt;/b&gt;&lt;br&gt;&lt;span&gt;Jack plug&lt;/span&gt;&lt;br&gt;&lt;span&gt;3,5 mm&lt;/span&gt;&lt;br&gt;4-pin&lt;br&gt;&lt;/font&gt;" style="text;html=1;strokeColor=none;fillColor=none;align=center;verticalAlign=middle;whiteSpace=wrap;rounded=0;fontSize=14;" parent="1" vertex="1">
          <mxGeometry x="60" y="328" width="101" height="88" as="geometry" />
        </mxCell>
        <mxCell id="Fk-Q9RZJwfzhAbFqgGlb-7" value="" style="endArrow=oval;html=1;strokeWidth=1;fontSize=14;fillColor=#dae8fc;strokeColor=#6c8ebf;endFill=1;startArrow=oval;startFill=1;" parent="1" edge="1">
          <mxGeometry width="50" height="50" relative="1" as="geometry">
            <mxPoint x="307" y="360" as="sourcePoint" />
            <mxPoint x="351" y="338" as="targetPoint" />
            <Array as="points">
              <mxPoint x="307" y="338" />
            </Array>
          </mxGeometry>
        </mxCell>
        <mxCell id="Fk-Q9RZJwfzhAbFqgGlb-8" value="" style="endArrow=oval;html=1;strokeWidth=1;fontSize=14;fillColor=#dae8fc;strokeColor=#6c8ebf;endFill=1;startArrow=oval;startFill=1;exitX=0.72;exitY=0;exitDx=0;exitDy=0;exitPerimeter=0;" parent="1" edge="1">
          <mxGeometry width="50" height="50" relative="1" as="geometry">
            <mxPoint x="296" y="360.5" as="sourcePoint" />
            <mxPoint x="351" y="318" as="targetPoint" />
            <Array as="points">
              <mxPoint x="296" y="318" />
            </Array>
          </mxGeometry>
        </mxCell>
        <mxCell id="Fk-Q9RZJwfzhAbFqgGlb-9" value="" style="endArrow=oval;html=1;strokeWidth=1;fontSize=14;fillColor=#dae8fc;strokeColor=#6c8ebf;endFill=1;startArrow=oval;startFill=1;exitX=0.42;exitY=0;exitDx=0;exitDy=0;exitPerimeter=0;" parent="1" edge="1">
          <mxGeometry width="50" height="50" relative="1" as="geometry">
            <mxPoint x="286" y="360.5" as="sourcePoint" />
            <mxPoint x="351" y="298" as="targetPoint" />
            <Array as="points">
              <mxPoint x="286" y="298" />
            </Array>
          </mxGeometry>
        </mxCell>
        <mxCell id="Fk-Q9RZJwfzhAbFqgGlb-10" value="&lt;font style=&quot;font-size: 14px&quot;&gt;3 +5V&lt;/font&gt;" style="text;html=1;strokeColor=none;fillColor=none;align=left;verticalAlign=middle;whiteSpace=wrap;rounded=0;fontSize=14;" parent="1" vertex="1">
          <mxGeometry x="361" y="288" width="70" height="20" as="geometry" />
        </mxCell>
        <mxCell id="Fk-Q9RZJwfzhAbFqgGlb-11" value="&lt;font style=&quot;font-size: 14px&quot;&gt;2 LED Data&lt;/font&gt;" style="text;html=1;strokeColor=none;fillColor=none;align=left;verticalAlign=middle;whiteSpace=wrap;rounded=0;fontSize=14;" parent="1" vertex="1">
          <mxGeometry x="361" y="308" width="79" height="20" as="geometry" />
        </mxCell>
        <mxCell id="Fk-Q9RZJwfzhAbFqgGlb-12" value="&lt;font style=&quot;font-size: 14px&quot;&gt;1 Buzzer Switch&lt;/font&gt;" style="text;html=1;strokeColor=none;fillColor=none;align=left;verticalAlign=middle;whiteSpace=wrap;rounded=0;fontSize=14;" parent="1" vertex="1">
          <mxGeometry x="361" y="328" width="119" height="20" as="geometry" />
        </mxCell>
        <mxCell id="Fk-Q9RZJwfzhAbFqgGlb-13" value="" style="endArrow=none;html=1;strokeWidth=2;entryX=0.75;entryY=0;entryDx=0;entryDy=0;exitX=0.75;exitY=1;exitDx=0;exitDy=0;" parent="1" edge="1">
          <mxGeometry width="50" height="50" relative="1" as="geometry">
            <mxPoint x="281" y="370.5" as="sourcePoint" />
            <mxPoint x="281" y="360.5" as="targetPoint" />
          </mxGeometry>
        </mxCell>
        <mxCell id="Fk-Q9RZJwfzhAbFqgGlb-14" value="" style="endArrow=oval;html=1;strokeWidth=1;fontSize=14;fillColor=#dae8fc;strokeColor=#6c8ebf;endFill=1;startArrow=oval;startFill=1;exitX=0.42;exitY=0;exitDx=0;exitDy=0;exitPerimeter=0;" parent="1" edge="1">
          <mxGeometry width="50" height="50" relative="1" as="geometry">
            <mxPoint x="276" y="360.5" as="sourcePoint" />
            <mxPoint x="351" y="278" as="targetPoint" />
            <Array as="points">
              <mxPoint x="276" y="278" />
            </Array>
          </mxGeometry>
        </mxCell>
        <mxCell id="Fk-Q9RZJwfzhAbFqgGlb-15" value="&lt;font style=&quot;font-size: 14px&quot;&gt;4 GND&lt;/font&gt;" style="text;html=1;strokeColor=none;fillColor=none;align=left;verticalAlign=middle;whiteSpace=wrap;rounded=0;fontSize=14;" parent="1" vertex="1">
          <mxGeometry x="361" y="268" width="70" height="20" as="geometry" />
        </mxCell>
      </root>
    </mxGraphModel>
  </diagram>
</mxfile>
